<?xml version="1.0" encoding="UTF-8" standalone="no"?>
<svg
   xmlns:dc="http://purl.org/dc/elements/1.1/"
   xmlns:cc="http://creativecommons.org/ns#"
   xmlns:rdf="http://www.w3.org/1999/02/22-rdf-syntax-ns#"
   xmlns:svg="http://www.w3.org/2000/svg"
   xmlns="http://www.w3.org/2000/svg"
   xmlns:sodipodi="http://sodipodi.sourceforge.net/DTD/sodipodi-0.dtd"
   xmlns:inkscape="http://www.inkscape.org/namespaces/inkscape"
   id="Calque_1"
   data-name="Calque 1"
   viewBox="0 0 820 360"
   version="1.1"
   sodipodi:docname="smile-logo.svg"
   inkscape:version="0.92.3 (2405546, 2018-03-11)">
  <metadata
     id="metadata95">
    <rdf:RDF>
      <cc:Work
         rdf:about="">
        <dc:format>image/svg+xml</dc:format>
        <dc:type
           rdf:resource="http://purl.org/dc/dcmitype/StillImage" />
      </cc:Work>
    </rdf:RDF>
  </metadata>
  <sodipodi:namedview
     pagecolor="#ffffff"
     bordercolor="#666666"
     borderopacity="1"
     objecttolerance="10"
     gridtolerance="10"
     guidetolerance="10"
     inkscape:pageopacity="0"
     inkscape:pageshadow="2"
     inkscape:window-width="1920"
     inkscape:window-height="1019"
     id="namedview93"
     showgrid="false"
     inkscape:zoom="0.91707317"
     inkscape:cx="412.05674"
     inkscape:cy="293.01166"
     inkscape:window-x="1920"
     inkscape:window-y="0"
     inkscape:window-maximized="1"
     inkscape:current-layer="Calque_1" />
  <defs
     id="defs4">
    <style
       id="style2">.cls-1{fill:#ff8054;}.cls-2,.cls-3{fill:#3b80ff;}.cls-3{font-size:40.6px;font-family:Raleway-Bold, Raleway;font-weight:700;}.cls-4{letter-spacing:0.2em;}.cls-5{letter-spacing:0.13em;}.cls-6{letter-spacing:0.17em;}.cls-7{letter-spacing:0.2em;}</style>
  </defs>
  <title
     id="title6">Logo_smile_orange</title>
  <path
     class="cls-1"
     d="M154.08,90.72c21.46,0,43.81,10.73,61.12,25.41l-24.32,22.34c-11.83-7.23-28.48-12.71-36.8-12.71h-1.54c-6.79,0-21.69,1.31-21.69,12.27,0,8.33,12.28,9.64,21.91,10.74l9.86.87c31.55,3.51,57,15.33,57,48.85,0,30-25.41,48.19-61.34,48.63h-1.09a88.59,88.59,0,0,1-66.82-29.57l24.32-22.35a62.21,62.21,0,0,0,42.5,16.87h1.09c15.77-.22,24.1-5.26,24.1-13.58,0-11-12.48-12.71-24.76-14.24l-10.08-1.1c-28.48-3.07-53.88-14.9-53.88-44,0-29.79,25.41-48,58.92-48.41Z"
     id="path8" />
  <polygon
     class="cls-1"
     points="354.96 245.6 354.96 159.72 314.65 209.02 274.57 159.72 274.57 245.6 237.32 245.6 237.32 92.25 259.67 92.25 314.65 160.6 369.86 92.25 392.21 92.25 392.21 245.6 354.96 245.6"
     id="polygon10" />
  <polygon
     class="cls-1"
     points="497.08 245.6 497.08 92.25 534.33 92.25 534.33 210.33 598.3 210.33 598.3 245.6 497.08 245.6"
     id="polygon12" />
  <polygon
     class="cls-1"
     points="719.94 151.18 719.94 186.45 658.17 186.45 658.17 210.33 725.86 210.33 725.86 245.6 620.93 245.6 620.93 92.25 725.86 92.25 725.86 127.3 658.17 127.3 658.17 151.18 719.94 151.18"
     id="polygon14" />
  <rect
     class="cls-1"
     x="425.55"
     y="92.05"
     width="37.37"
     height="153.49"
     id="rect16" />
  <path
     class="cls-2"
     d="M315.36,236.9a47.84,47.84,0,0,1-47.78-47.79,3.73,3.73,0,0,1,7.47,0,40.32,40.32,0,1,0,80.63,0,3.73,3.73,0,1,1,7.47,0A47.84,47.84,0,0,1,315.36,236.9Z"
     id="path18"
     style="fill:#ffffff;fill-opacity:1" />
  <path
     class="cls-2"
     d="M352.87,147.08A35.08,35.08,0,0,1,327,135.51a3.73,3.73,0,1,1,5.52-5c10,11,26.54,12.25,36.85,2.85a3.73,3.73,0,0,1,5,5.52A31.74,31.74,0,0,1,352.87,147.08Z"
     id="path20"
     style="fill:#ffffff;fill-opacity:1" />
  <path
     class="cls-2"
     d="M275.56,147.1a31.6,31.6,0,0,1-21.5-8.26,3.73,3.73,0,1,1,5-5.52,24.35,24.35,0,0,0,18.42,6.23,27.64,27.64,0,0,0,18.41-9.08,3.73,3.73,0,0,1,5.52,5A35.08,35.08,0,0,1,278.06,147C277.23,147.07,276.39,147.1,275.56,147.1Z"
     id="path22"
     style="fill:#ffffff;fill-opacity:1" />
  <path
     class="cls-2"
     d="M787.69,202.86a3.73,3.73,0,0,1-3.73-3.69h0c0-3.11-.84-8.46-2.44-10.06-1.91-1.91-6.37-2.41-7.79-2.44a3.73,3.73,0,0,1,.09-7.47h0c2.14,0,6.13-.61,7.78-2.26,1.5-1.5,2.31-7,2.33-10.49v0a3.73,3.73,0,0,1,3.73-3.72h0a3.73,3.73,0,0,1,3.73,3.73v0c0,3.4.81,8.91,2.35,10.44,1.75,1.75,5.84,2.3,7.66,2.3h.15a3.73,3.73,0,0,1,0,7.47h0c-2.13,0-6.13.7-7.81,2.38-1.51,1.51-2.35,6.84-2.38,10.1a3.74,3.74,0,0,1-3.73,3.71ZM786,183.06q.44.36.84.76a9.71,9.71,0,0,1,.84,1,9.54,9.54,0,0,1,.88-1,11.2,11.2,0,0,1,.87-.78,11.21,11.21,0,0,1-.9-.8,9.31,9.31,0,0,1-.78-.89,9.17,9.17,0,0,1-.8.92A10.92,10.92,0,0,1,786,183.06Z"
     id="path24"
     style="fill:#ffffff;fill-opacity:1" />
  <path
     class="cls-2"
     d="M593.92,86.2a3.73,3.73,0,0,1-3.73-3.7h0c0-3.11-.83-8.45-2.44-10.05C585.84,70.54,581.38,70,580,70a3.73,3.73,0,0,1,.06-7.47h.06c2.14,0,6.13-.61,7.78-2.27,1.5-1.5,2.32-7.05,2.33-10.5v0A3.73,3.73,0,0,1,593.92,46h0a3.73,3.73,0,0,1,3.73,3.73v0c0,3.41.82,8.92,2.35,10.46,1.9,1.9,6.39,2.29,7.78,2.29h0a3.73,3.73,0,0,1,.65,7.41h0a3.81,3.81,0,0,1-.61.06h0c-2.13,0-6.13.7-7.81,2.38-1.52,1.52-2.36,6.84-2.38,10.1a3.73,3.73,0,0,1-3.73,3.71Zm-1.73-19.79c.29.24.57.49.84.76a9.65,9.65,0,0,1,.84,1,9.54,9.54,0,0,1,.89-1,10.88,10.88,0,0,1,.86-.77,11.47,11.47,0,0,1-.9-.8,9.5,9.5,0,0,1-.78-.89,9.19,9.19,0,0,1-.8.92A11,11,0,0,1,592.19,66.41Z"
     id="path26"
     style="fill:#ffffff;fill-opacity:1" />
  <path
     class="cls-2"
     d="M419.62,241a3.73,3.73,0,0,1-3.73-3.7h0c0-3.11-.84-8.46-2.44-10.06-1.79-1.79-6-2.42-7.77-2.44a3.73,3.73,0,0,1,.08-7.47h0c2.14,0,6.13-.61,7.78-2.26s2.32-7.05,2.33-10.5v0a3.73,3.73,0,0,1,3.73-3.72h0a3.73,3.73,0,0,1,3.73,3.73v0c0,3.4.82,8.92,2.35,10.46,1.88,1.88,6.27,2.29,7.74,2.29h.08a3.73,3.73,0,0,1,.58,7.42h0a3.7,3.7,0,0,1-.5,0h0c-2.13,0-6.13.7-7.81,2.38-1.52,1.52-2.36,6.84-2.39,10.1a3.73,3.73,0,0,1-3.73,3.71Zm-1.73-19.79q.44.36.84.76a9.73,9.73,0,0,1,.84,1,9.49,9.49,0,0,1,.89-1,11.09,11.09,0,0,1,.86-.77,11.28,11.28,0,0,1-.9-.8,9.33,9.33,0,0,1-.78-.89,9,9,0,0,1-.8.92A11,11,0,0,1,417.89,221.22Z"
     id="path28"
     style="fill:#ffffff;fill-opacity:1" />
  <path
     class="cls-2"
     d="M193.48,81.28a3.73,3.73,0,0,1-3.73-3.7c0-4.61-1.19-13-4-15.83-3.21-3.21-10.12-4-12.51-4.05a3.74,3.74,0,0,1-3.68-3.78,3.7,3.7,0,0,1,3.76-3.69c2.42,0,9.44-.65,12.59-3.8,2.91-2.92,3.87-12.3,3.88-16.46v-.07a3.73,3.73,0,0,1,3.73-3.72h0a3.73,3.73,0,0,1,3.73,3.73v0c0,5.21,1.22,13.73,3.93,16.44,3.2,3.21,10.22,3.87,12.49,3.84h.09a3.73,3.73,0,0,1,0,7.47h0c-2.43,0-9.4.8-12.56,4-2.94,2.94-3.95,12-4,15.9a3.73,3.73,0,0,1-3.73,3.71ZM188,54.13a16.38,16.38,0,0,1,3,2.34,14.45,14.45,0,0,1,2.45,3.38,14.3,14.3,0,0,1,2.48-3.46,16,16,0,0,1,3-2.34,16.09,16.09,0,0,1-3.06-2.37,13.94,13.94,0,0,1-2.36-3.25,13.73,13.73,0,0,1-2.36,3.29A15.83,15.83,0,0,1,188,54.13Z"
     id="path30"
     style="fill:#ffffff;fill-opacity:1" />
  <path
     class="cls-2"
     d="M316.79,57.46a3.73,3.73,0,0,1-3.73-3.73V34.66a3.73,3.73,0,0,1,7.47,0V53.72A3.73,3.73,0,0,1,316.79,57.46Z"
     id="path32"
     style="fill:#ffffff;fill-opacity:1" />
  <path
     class="cls-2"
     d="M351.86,64.83A3.73,3.73,0,0,1,349,58.72L361.1,44a3.73,3.73,0,1,1,5.77,4.75L354.75,63.47A3.73,3.73,0,0,1,351.86,64.83Z"
     id="path34"
     style="fill:#ffffff;fill-opacity:1" />
  <path
     class="cls-2"
     d="M281,64.67a3.73,3.73,0,0,1-2.8-1.26L265.56,49.15a3.73,3.73,0,0,1,5.59-5l12.65,14.27A3.73,3.73,0,0,1,281,64.67Z"
     id="path36"
     style="fill:#ffffff;fill-opacity:1" />
  <path
     class="cls-2"
     d="M569.83,196.16l26.77-4.31c8.32-1.34,13.32-8.46,12.08-16a13.85,13.85,0,0,0-15.91-11.43,13.84,13.84,0,0,0-15.84-11.51c-7.56,1.2-12.75,8.17-11.41,16.49,1.5,9.3,3.89,24.17,4.3,26.77"
     id="path38"
     style="fill:#ffffff;fill-opacity:1" />
  <path
     class="cls-2"
     d="M548.49,139.78a3.73,3.73,0,0,1-2.76-6.25c11.83-13,31.52-14.35,43.88-3.08a3.73,3.73,0,1,1-5,5.52c-9.32-8.5-24.27-7.34-33.33,2.59A3.72,3.72,0,0,1,548.49,139.78Z"
     id="path40"
     style="fill:#ffffff;fill-opacity:1" />
  <path
     class="cls-2"
     d="M475.56,131.28a14.62,14.62,0,1,1,14.62,14.62,14.62,14.62,0,0,1-14.62-14.62"
     id="path42"
     style="fill:#ffffff;fill-opacity:1" />
  <path
     class="cls-2"
     d="M525.58,215.67a3.73,3.73,0,0,1-2.24-6.73l16.42-12.24-10.39-12.25a3.73,3.73,0,0,1,.23-5.08l9.31-9.15-15.37-12.55a3.73,3.73,0,0,1,4.72-5.79l18.6,15.18a3.73,3.73,0,0,1,.26,5.56l-9.81,9.64L548,194.9a3.74,3.74,0,0,1-.62,5.41l-19.61,14.62A3.72,3.72,0,0,1,525.58,215.67Z"
     id="path44"
     style="fill:#ffffff;fill-opacity:1" />
  <path
     class="cls-2"
     d="M546.83,117.64a3.74,3.74,0,0,1-2.07-6.84l19.87-13.24a3.74,3.74,0,0,1,4.14,6.22L548.9,117A3.72,3.72,0,0,1,546.83,117.64Z"
     id="path46"
     style="fill:#ffffff;fill-opacity:1" />
  <path
     class="cls-2"
     d="M128.72,16.23a6.13,6.13,0,1,1-6.13-6.13,6.13,6.13,0,0,1,6.13,6.13"
     id="path48"
     style="fill:#ffffff;fill-opacity:1" />
  <path
     class="cls-2"
     d="M671.3,16.89a6.13,6.13,0,1,1-6.13-6.13,6.13,6.13,0,0,1,6.13,6.13"
     id="path50"
     style="fill:#ffffff;fill-opacity:1" />
  <path
     class="cls-2"
     d="M475.56,68.17A6.13,6.13,0,1,1,469.44,62a6.13,6.13,0,0,1,6.12,6.13"
     id="path52"
     style="fill:#ffffff;fill-opacity:1" />
  <path
     class="cls-2"
     d="M755.1,214.79a6.13,6.13,0,1,1-6.13-6.13,6.13,6.13,0,0,1,6.13,6.13"
     id="path54"
     style="fill:#ffffff;fill-opacity:1" />
  <path
     class="cls-2"
     d="M398.34,182.58a6.13,6.13,0,1,1-6.14-6.13,6.13,6.13,0,0,1,6.14,6.13"
     id="path56"
     style="fill:#ffffff;fill-opacity:1" />
  <path
     class="cls-2"
     d="M705.48,151.33a3.73,3.73,0,0,1-3.4-5.27l6.68-14.81a36.34,36.34,0,0,1-9.41-24.12c0-21.65,20-39.26,44.58-39.26s44.58,17.61,44.58,39.26-20,39.25-44.58,39.25A49.8,49.8,0,0,1,728,143.81l-21.33,7.31A3.71,3.71,0,0,1,705.48,151.33Zm38.45-76c-20.46,0-37.11,14.26-37.11,31.79a29.27,29.27,0,0,0,9,20.73,3.73,3.73,0,0,1,.77,4.18l-4.16,9.22,14.39-4.93a3.73,3.73,0,0,1,2.5,0,42.23,42.23,0,0,0,14.61,2.56c20.46,0,37.11-14.26,37.11-31.79S764.4,75.34,743.93,75.34Z"
     id="path58"
     style="fill:#ffffff;fill-opacity:1" />
  <path
     class="cls-2"
     d="M724.35,107.83a4.1,4.1,0,1,1,4.1,4.11,4.1,4.1,0,0,1-4.1-4.11"
     id="path60"
     style="fill:#ffffff;fill-opacity:1" />
  <path
     class="cls-2"
     d="M738.78,107.83a4.11,4.11,0,1,1,4.11,4.11,4.11,4.11,0,0,1-4.11-4.11"
     id="path62"
     style="fill:#ffffff;fill-opacity:1" />
  <path
     class="cls-2"
     d="M753.21,107.83a4.11,4.11,0,1,1,4.11,4.11,4.11,4.11,0,0,1-4.11-4.11"
     id="path64"
     style="fill:#ffffff;fill-opacity:1" />
  <path
     class="cls-2"
     d="M421.09,138.18a3.93,3.93,0,1,1-3.94-3.93,3.94,3.94,0,0,1,3.94,3.93"
     id="path66"
     style="fill:#ffffff;fill-opacity:1" />
  <path
     class="cls-2"
     d="M70.94,126.91A3.93,3.93,0,1,1,67,123a3.94,3.94,0,0,1,3.94,3.93"
     id="path68"
     style="fill:#ffffff;fill-opacity:1" />
  <path
     class="cls-2"
     d="M21.09,235.23a3.73,3.73,0,0,1-3.7-4.24c.09-.66,2.32-16.29,10-23.69A13,13,0,1,1,45.47,226h0c-8.49,8.24-23.53,9.2-24.16,9.24ZM36.4,211.1a5.53,5.53,0,0,0-3.86,1.56c-3.38,3.28-5.58,9.62-6.77,14.42,4.34-.84,10.57-2.65,14.5-6.46h0a5.54,5.54,0,0,0-3.87-9.53Z"
     id="path70"
     style="fill:#ffffff;fill-opacity:1" />
  <path
     class="cls-2"
     d="M54.28,215.66a3.73,3.73,0,0,1-3.71-3.31,11,11,0,0,0-3.08-6.49l-.09-.09a11.05,11.05,0,0,0-6.66-3.22A3.73,3.73,0,0,1,37.52,198c2.45-10.93,7.84-26.41,19.66-38,20.74-20.41,52.59-21,53.94-21a3.78,3.78,0,0,1,2.68,1.1,3.73,3.73,0,0,1,1.09,2.69c0,1.36-.73,33.57-21.49,54C81.62,208.37,66,213.4,55,215.58A3.73,3.73,0,0,1,54.28,215.66Zm-8.6-19.59a18.65,18.65,0,0,1,7.07,4.49l.08.08.08.08a18.28,18.28,0,0,1,4.18,6.77c9.62-2.3,21.8-6.9,31.08-16,14.53-14.29,18.11-35.84,19-44.73-8.84.84-30.24,4.31-44.72,18.56C53.11,174.46,48.23,186.51,45.68,196.07Zm42.25-18.48a11.64,11.64,0,0,1,0-23.29H88a11.57,11.57,0,0,1,8.21,3.48h0a11.64,11.64,0,0,1-8.3,19.8Zm0-15.82a4.18,4.18,0,0,0-3,7.11,4.18,4.18,0,0,0,6-5.86h0A4.16,4.16,0,0,0,88,161.77Z"
     id="path72"
     style="fill:#ffffff;fill-opacity:1" />
  <path
     class="cls-2"
     d="M43.66,193.52a3.71,3.71,0,0,1-1-.14l-21.25-6a3.73,3.73,0,0,1-1.61-6.26l15.45-15.2a3.73,3.73,0,0,1,2.55-1.07l16.94-.33h.07a3.73,3.73,0,0,1,.07,7.47l-15.45.3L29.62,182l15,4.23a3.73,3.73,0,0,1-1,7.33Z"
     id="path74"
     style="fill:#ffffff;fill-opacity:1" />
  <path
     class="cls-2"
     d="M68.71,234.59a3.73,3.73,0,0,1-3.61-2.78l-5.37-20.35a3.73,3.73,0,0,1,7.22-1.91l3.73,14.12L80.48,214l.5-14a3.73,3.73,0,1,1,7.46.27l-.55,15.48a3.73,3.73,0,0,1-1.11,2.53L71.33,233.51A3.74,3.74,0,0,1,68.71,234.59Z"
     id="path76"
     style="fill:#ffffff;fill-opacity:1" />
  <text
     class="cls-3"
     transform="translate(267.52 338.26)"
     id="text90"
     style="fill:#ffffff;fill-opacity:1;">
    <tspan
       class="cls-4"
       id="tspan78"
       style="fill:#ffffff;fill-opacity:1;">I</tspan>
    <tspan
       class="cls-5"
       x="19.73"
       y="0"
       id="tspan80"
       style="fill:#ffffff;fill-opacity:1;">.</tspan>
    <tspan
       class="cls-6"
       x="34.07"
       y="0"
       id="tspan82"
       style="fill:#ffffff;fill-opacity:1;">T</tspan>
    <tspan
       class="cls-4"
       x="66.18"
       y="0"
       xml:space="preserve"
       id="tspan84"
       style="fill:#ffffff;fill-opacity:1;"> IS OP</tspan>    <tspan
       class="cls-7"
       x="226.89"
       y="0"
       id="tspan86"
       style="fill:#ffffff;fill-opacity:1;">E</tspan>
    <tspan
       x="259.37"
       y="0"
       id="tspan88"
       style="fill:#ffffff;fill-opacity:1;">N</tspan>
  </text>
</svg>
